<svg xmlns="http://www.w3.org/2000/svg" viewBox="0 0 100 100">
  <defs>
    <linearGradient id="hexGradient" x1="0%" y1="0%" x2="100%" y2="100%">
      <stop offset="0%" style="stop-color:#2D9D78"/>
      <stop offset="50%" style="stop-color:#10B981"/>
      <stop offset="100%" style="stop-color:#34D399"/>
    </linearGradient>
  </defs>
  <!-- Hexagon 3D shape -->
  <path d="M50 5 L90 27.5 L90 72.5 L50 95 L10 72.5 L10 27.5 Z" fill="url(#hexGradient)"/>
  <!-- Top face (lighter) -->
  <path d="M50 5 L90 27.5 L50 50 L10 27.5 Z" fill="#3DB890" opacity="0.7"/>
  <!-- Letter P -->
  <path d="M35 30 L35 70 L45 70 L45 55 L55 55 C65 55 70 48 70 42 C70 36 65 30 55 30 Z M45 38 L55 38 C58 38 60 40 60 42 C60 44 58 47 55 47 L45 47 Z" fill="white"/>
</svg>

